HIERARCHY
ROOT root
{
  OFFSET 0 93.2929 0
  CHANNELS 6 Xposition Yposition Zposition Zrotation Xrotation Yrotation
  JOINT torso_1
  {
    OFFSET 0 5.07867 -1.15138
    CHANNELS 6 Xposition Yposition Zposition Zrotation Xrotation Yrotation
    JOINT torso_2
    {
      OFFSET 0 5.61661 1.07143
      CHANNELS 6 Xposition Yposition Zposition Zrotation Xrotation Yrotation
      JOINT torso_3
      {
        OFFSET -1.02604e-17 5.98978 0.11501
        CHANNELS 6 Xposition Yposition Zposition Zrotation Xrotation Yrotation
        JOINT torso_4
        {
          OFFSET -1.10457e-17 6.50583 -0.443523
          CHANNELS 6 Xposition Yposition Zposition Zrotation Xrotation Yrotation
          JOINT torso_5
          {
            OFFSET -1.97295e-17 7.60548 -1.50593
            CHANNELS 6 Xposition Yposition Zposition Zrotation Xrotation Yrotation
            JOINT torso_6
            {
              OFFSET -2.53307e-17 9.49737 -0.914492
              CHANNELS 6 Xposition Yposition Zposition Zrotation Xrotation Yrotation
              JOINT torso_7
              {
                OFFSET -2.90401e-17 10.5513 1.57691
                CHANNELS 6 Xposition Yposition Zposition Zrotation Xrotation Yrotation
                JOINT neck_1
                {
                  OFFSET -1.29193e-17 4.78644 0.715339
                  CHANNELS 6 Xposition Yposition Zposition Zrotation Xrotation Yrotation
                  JOINT neck_2
                  {
                    OFFSET -1.8116e-17 4.82109 0.421791
                    CHANNELS 6 Xposition Yposition Zposition Zrotation Xrotation Yrotation
                    JOINT head
                    {
                      OFFSET -2.00958e-17 4.83041 0.765062
                      CHANNELS 6 Xposition Yposition Zposition Zrotation Xrotation Yrotation
                      End Site
                      {
                        OFFSET 0 0.1 0
                      }
                    }
                  }
                }
                JOINT l_shoulder
                {
                  OFFSET 1.23299 -7.60731 7.53374
                  CHANNELS 6 Xposition Yposition Zposition Zrotation Xrotation Yrotation
                  JOINT l_up_arm
                  {
                    OFFSET 12.9547 3.2495 -3.26872
                    CHANNELS 6 Xposition Yposition Zposition Zrotation Xrotation Yrotation
                    JOINT l_low_arm
                    {
                      OFFSET 29.2081 0.0598081 0.137039
                      CHANNELS 6 Xposition Yposition Zposition Zrotation Xrotation Yrotation
                      JOINT l_hand
                      {
                        OFFSET 24.234 0.0496219 0.113701
                        CHANNELS 6 Xposition Yposition Zposition Zrotation Xrotation Yrotation
                        End Site
                        {
                          OFFSET 0.1 0 0
                        }
                      }
                    }
                  }
                }
                JOINT r_shoulder
                {
                  OFFSET -1.23299 -7.60729 7.53365
                  CHANNELS 6 Xposition Yposition Zposition Zrotation Xrotation Yrotation
                  JOINT r_up_arm
                  {
                    OFFSET -12.9547 3.2495 -3.26872
                    CHANNELS 6 Xposition Yposition Zposition Zrotation Xrotation Yrotation
                    JOINT r_low_arm
                    {
                      OFFSET -29.2081 0.0598081 0.137039
                      CHANNELS 6 Xposition Yposition Zposition Zrotation Xrotation Yrotation
                      JOINT r_hand
                      {
                        OFFSET -24.234 0.0496218 0.113702
                        CHANNELS 6 Xposition Yposition Zposition Zrotation Xrotation Yrotation
                        End Site
                        {
                          OFFSET -0.1 0 0
                        }
                      }
                    }
                  }
                }
              }
            }
          }
        }
      }
    }
  }
  JOINT l_up_leg
  {
    OFFSET 9.23673 -4.20556 2.0327
    CHANNELS 6 Xposition Yposition Zposition Zrotation Xrotation Yrotation
    JOINT l_low_leg
    {
      OFFSET -0.852353 -38.7721 -0.655187
      CHANNELS 6 Xposition Yposition Zposition Zrotation Xrotation Yrotation
      JOINT l_foot
      {
        OFFSET -2.32622 -40.4017 -6.04875
        CHANNELS 6 Xposition Yposition Zposition Zrotation Xrotation Yrotation
        JOINT l_toes
        {
          OFFSET 0.779096 -9.8844 12.4959
          CHANNELS 6 Xposition Yposition Zposition Zrotation Xrotation Yrotation
          End Site
          {
            OFFSET 0 0 0.1
          }
        }
      }
    }
  }
  JOINT r_up_leg
  {
    OFFSET -9.23673 -4.20556 2.0327
    CHANNELS 6 Xposition Yposition Zposition Zrotation Xrotation Yrotation
    JOINT r_low_leg
    {
      OFFSET 0.852353 -38.7721 -0.655187
      CHANNELS 6 Xposition Yposition Zposition Zrotation Xrotation Yrotation
      JOINT r_foot
      {
        OFFSET 2.32622 -40.4017 -6.04875
        CHANNELS 6 Xposition Yposition Zposition Zrotation Xrotation Yrotation
        JOINT r_toes
        {
          OFFSET -0.779096 -9.8844 12.4959
          CHANNELS 6 Xposition Yposition Zposition Zrotation Xrotation Yrotation
          End Site
          {
            OFFSET 0 0 0.1
          }
        }
      }
    }
  }
}
MOTION
Frames: 7
Frame Time: 0.016667
2.59002 93.199 64.1203 2.58266 1.86981 1.68053 0 5.07867 -1.15138 -2.03052 1.05054 0.525008 0 5.61661 1.07143 -1.61314 1.38636 0.208698 -1.02604e-17 5.98978 0.11501 -1.20738 2.15502 0.292278 -1.10457e-17 6.50583 -0.443523 -0.832089 3.05477 0.304566 -1.97295e-17 7.60548 -1.50593 -0.333878 3.10184 0.405372 -2.53307e-17 9.49737 -0.914492 0.289217 3.22528 0.16134 -2.90401e-17 10.5513 1.57691 0.0406501 0.665747 0.0131253 -1.29193e-17 4.78644 0.715339 0.0737886 2.51718 -0.0799712 -1.8116e-17 4.82109 0.421791 -0.220634 -2.94932 -0.177121 -2.00958e-17 4.83041 0.765062 -2.46291 -3.17545 2.60612 1.23299 -7.60731 7.53374 0.208172 2.03408 -0.134107 12.9547 3.2495 -3.26872 -81.238 23.9827 -5.20098 29.2081 0.0598081 0.137039 2.92093 -0.348909 -14.2119 24.234 0.0496219 0.113701 0.439949 -15.1281 -5.0814 -1.23299 -7.60729 7.53365 3.05867 2.90233 1.46607 -12.9547 3.2495 -3.26872 75.0096 12.4461 5.98342 -29.2081 0.0598081 0.137039 -2.19589 -0.19293 10.6385 -24.234 0.0496218 0.113702 -0.551486 -12.1085 3.65785 9.23673 -4.20556 2.0327 -2.22389 -4.24528 -16.6297 -0.852353 -38.7721 -0.655187 0.0370723 -0.138323 0.0024592 -2.32622 -40.4017 -6.04875 -1.04107 1.97854 15.1826 0.779096 -9.8844 12.4959 2.48481e-17 -7.95139e-16 1.2424e-17 -9.23673 -4.20556 2.0327 -3.42789 -6.43283 22.9522 0.852353 -38.7721 -0.655187 0.690343 2.57825 0.0294734 2.32622 -40.4017 -6.04875 -0.83824 -1.11864 -15.0612 -0.779096 -9.8844 12.4959 -5.70046e-16 -5.60726e-16 -1.27479e-14 
2.55177 93.2542 63.8109 2.67719 2.52018 1.7711 0 5.07867 -1.15138 -2.09622 1.09085 0.540553 0 5.61661 1.07143 -1.67558 1.43849 0.221913 -1.02604e-17 5.98978 0.11501 -1.25751 2.23622 0.305207 -1.10457e-17 6.50583 -0.443523 -0.869655 3.19862 0.318536 -1.97295e-17 7.60548 -1.50593 -0.357865 3.26734 0.427811 -2.53307e-17 9.49737 -0.914492 0.284398 3.41621 0.187618 -2.90401e-17 10.5513 1.57691 0.049159 0.646157 0.0190391 -1.29193e-17 4.78644 0.715339 0.0319318 2.81268 -0.208503 -1.8116e-17 4.82109 0.421791 -0.162297 -2.7757 -0.234352 -2.00958e-17 4.83041 0.765062 -2.58028 -3.05838 2.48367 1.23299 -7.60731 7.53374 0.290023 1.92701 -0.0524891 12.9547 3.2495 -3.26872 -81.044 24.2834 -5.7139 29.2081 0.0598081 0.137039 3.0341 -0.377535 -14.7739 24.234 0.0496219 0.113701 0.564324 -15.055 -5.22193 -1.23299 -7.60729 7.53365 3.18469 2.8376 1.57712 -12.9547 3.2495 -3.26872 74.6193 11.8493 6.64962 -29.2081 0.0598081 0.137039 -2.22213 -0.197748 10.767 -24.234 0.0496218 0.113702 -0.782569 -11.421 3.54775 9.23673 -4.20556 2.0327 -2.3234 -5.4264 -16.6941 -0.852353 -38.7721 -0.655187 -0.0933562 0.348427 -0.00579789 -2.32622 -40.4017 -6.04875 -1.28729 2.20117 15.2057 0.779096 -9.8844 12.4959 2.48481e-17 -7.95139e-16 1.2424e-17 -9.23673 -4.20556 2.0327 -3.52198 -7.55273 22.5523 0.852353 -38.7721 -0.655187 0.803043 2.99919 0.0313366 2.32622 -40.4017 -6.04875 -0.707208 -0.980237 -15.0604 -0.779096 -9.8844 12.4959 -2.38738e-16 -5.81433e-16 -1.27582e-14 
2.51724 93.3042 63.5291 2.79449 3.10459 1.96666 0 5.07867 -1.15138 -2.17569 1.17758 0.553588 0 5.61661 1.07143 -1.74859 1.5243 0.231803 -1.02604e-17 5.98978 0.11501 -1.31521 2.33854 0.314536 -1.10457e-17 6.50583 -0.443523 -0.911716 3.34359 0.329145 -1.97295e-17 7.60548 -1.50593 -0.384533 3.42154 0.447716 -2.53307e-17 9.49737 -0.914492 0.278133 3.58886 0.211716 -2.90401e-17 10.5513 1.57691 0.0568905 0.627382 0.0270907 -1.29193e-17 4.78644 0.715339 -0.0185546 3.134 -0.392731 -1.8116e-17 4.82109 0.421791 -0.118636 -2.66045 -0.318797 -2.00958e-17 4.83041 0.765062 -2.64216 -2.96881 2.33192 1.23299 -7.60731 7.53374 0.439202 1.80849 0.0712684 12.9547 3.2495 -3.26872 -80.8619 24.5653 -6.26509 29.2081 0.0598081 0.137039 3.16855 -0.413089 -15.4434 24.234 0.0496219 0.113701 0.783994 -14.5978 -5.24829 -1.23299 -7.60729 7.53365 3.29243 2.76979 1.67647 -12.9547 3.2495 -3.26872 74.2606 11.1101 7.30403 -29.2081 0.0598081 0.137039 -2.24927 -0.202796 10.9 -24.234 0.0496218 0.113702 -0.966621 -10.6279 3.44064 9.23673 -4.20556 2.0327 -2.47807 -6.73095 -16.711 -0.852353 -38.7721 -0.655187 -0.321063 1.19873 -0.0175652 -2.32622 -40.4017 -6.04875 -1.48965 2.3688 15.228 0.779096 -9.8844 12.4959 3.16203e-16 -7.86034e-16 3.31921e-18 -9.23673 -4.20556 2.0327 -3.66697 -8.58047 21.8988 0.852353 -38.7721 -0.655187 0.922107 3.44376 0.0324046 2.32622 -40.4017 -6.04875 -0.617572 -0.885317 -15.0495 -0.779096 -9.8844 12.4959 -4.90139e-16 -5.6572e-16 -1.27504e-14 
2.48794 93.3339 63.2521 2.90599 3.63782 2.32049 0 5.07867 -1.15138 -2.24626 1.32241 0.558495 0 5.61661 1.07143 -1.81185 1.6556 0.235891 -1.02604e-17 5.98978 0.11501 -1.3637 2.47338 0.318402 -1.10457e-17 6.50583 -0.443523 -0.944689 3.50053 0.334959 -1.97295e-17 7.60548 -1.50593 -0.403673 3.57335 0.461368 -2.53307e-17 9.49737 -0.914492 0.275901 3.75165 0.228208 -2.90401e-17 10.5513 1.57691 0.0641484 0.607026 0.0365785 -1.29193e-17 4.78644 0.715339 -0.0628277 3.55364 -0.637182 -1.8116e-17 4.82109 0.421791 -0.05364 -2.6664 -0.431192 -2.00958e-17 4.83041 0.765062 -2.71346 -3.03034 2.1382 1.23299 -7.60731 7.53374 0.692111 1.66256 0.250297 12.9547 3.2495 -3.26872 -80.7377 24.8928 -6.86266 29.2081 0.0598081 0.137039 3.32741 -0.457273 -16.237 24.234 0.0496219 0.113701 1.03991 -13.8654 -5.23273 -1.23299 -7.60729 7.53365 3.32069 2.67471 1.73261 -12.9547 3.2495 -3.26872 73.9287 10.3255 7.93338 -29.2081 0.0598081 0.137039 -2.27657 -0.207939 11.0338 -24.234 0.0496218 0.113702 -1.07085 -9.92738 3.41729 9.23673 -4.20556 2.0327 -2.67237 -8.23808 -16.6706 -0.852353 -38.7721 -0.655187 -0.671007 2.50602 -0.0290699 -2.32622 -40.4017 -6.04875 -1.63253 2.42424 15.2478 0.779096 -9.8844 12.4959 4.22417e-16 -7.82715e-16 2.88531e-33 -9.23673 -4.20556 2.0327 -3.84471 -9.51447 21.0123 0.852353 -38.7721 -0.655187 1.03927 3.88107 0.0325523 2.32622 -40.4017 -6.04875 -0.611015 -0.86289 -15.0348 -0.779096 -9.8844 12.4959 -5.96354e-16 -5.59082e-16 -1.27471e-14 
2.44962 93.3271 62.9764 2.93185 4.05845 2.81017 0 5.07867 -1.15138 -2.27316 1.54761 0.55438 0 5.61661 1.07143 -1.83551 1.84914 0.236479 -1.02604e-17 5.98978 0.11501 -1.38022 2.65066 0.319025 -1.10457e-17 6.50583 -0.443523 -0.952557 3.66798 0.338121 -1.97295e-17 7.60548 -1.50593 -0.405152 3.71429 0.468223 -2.53307e-17 9.49737 -0.914492 0.280973 3.89239 0.236021 -2.90401e-17 10.5513 1.57691 0.0704419 0.585649 0.0469456 -1.29193e-17 4.78644 0.715339 -0.0925423 4.08202 -0.932119 -1.8116e-17 4.82109 0.421791 0.0319242 -2.77952 -0.566325 -2.00958e-17 4.83041 0.765062 -2.82165 -3.25043 1.92202 1.23299 -7.60731 7.53374 1.03664 1.50063 0.456186 12.9547 3.2495 -3.26872 -80.6993 25.2822 -7.47098 29.2081 0.0598081 0.137039 3.51598 -0.512815 -17.1831 24.234 0.0496219 0.113701 1.31305 -13.0021 -5.18408 -1.23299 -7.60729 7.53365 3.23864 2.55793 1.74011 -12.9547 3.2495 -3.26872 73.6273 9.60876 8.5305 -29.2081 0.0598081 0.137039 -2.30758 -0.213862 11.1859 -24.234 0.0496218 0.113702 -1.1 -9.4527 3.47934 9.23673 -4.20556 2.0327 -2.80559 -9.8799 -16.5608 -0.852353 -38.7721 -0.655187 -1.14308 4.26832 -0.031934 -2.32622 -40.4017 -6.04875 -1.69084 2.28701 15.2636 0.779096 -9.8844 12.4959 5.81249e-16 -7.72788e-16 -9.92697e-18 -9.23673 -4.20556 2.0327 -3.95567 -10.3015 20.0222 0.852353 -38.7721 -0.655187 1.15469 4.3116 0.0318217 2.32622 -40.4017 -6.04875 -0.707776 -0.911253 -15.0168 -0.779096 -9.8844 12.4959 -5.96354e-16 -5.59082e-16 -1.27471e-14 
2.38898 93.2712 62.7076 2.80326 4.35702 3.38577 0 5.07867 -1.15138 -2.22612 1.85016 0.539224 0 5.61661 1.07143 -1.79436 2.1012 0.234177 -1.02604e-17 5.98978 0.11501 -1.34587 2.8639 0.316988 -1.10457e-17 6.50583 -0.443523 -0.922473 3.83569 0.339035 -1.97295e-17 7.60548 -1.50593 -0.381874 3.83331 0.466622 -2.53307e-17 9.49737 -0.914492 0.293809 3.99848 0.233708 -2.90401e-17 10.5513 1.57691 0.0752802 0.564701 0.0577764 -1.29193e-17 4.78644 0.715339 -0.105451 4.67743 -1.26463 -1.8116e-17 4.82109 0.421791 0.123291 -2.94595 -0.717853 -2.00958e-17 4.83041 0.765062 -2.98073 -3.58331 1.70173 1.23299 -7.60731 7.53374 1.43964 1.34359 0.659776 12.9547 3.2495 -3.26872 -80.7581 25.727 -8.01766 29.2081 0.0598081 0.137039 3.7407 -0.583463 -18.3165 24.234 0.0496219 0.113701 1.57265 -12.1796 -5.1196 -1.23299 -7.60729 7.53365 3.05208 2.43608 1.70916 -12.9547 3.2495 -3.26872 73.3315 9.05567 9.08555 -29.2081 0.0598081 0.137039 -2.35014 -0.222129 11.3948 -24.234 0.0496218 0.113702 -1.07462 -9.24496 3.601 9.23673 -4.20556 2.0327 -2.78473 -11.5945 -16.4346 -0.852353 -38.7721 -0.655187 -1.71699 6.40428 -0.0158333 -2.32622 -40.4017 -6.04875 -1.65155 1.90239 15.2785 0.779096 -9.8844 12.4959 6.34847e-16 -7.66545e-16 -1.61696e-17 -9.23673 -4.20556 2.0327 -3.90459 -10.9503 19.0982 0.852353 -38.7721 -0.655187 1.27144 4.74685 0.0301981 2.32622 -40.4017 -6.04875 -0.907191 -1.03433 -14.9985 -0.779096 -9.8844 12.4959 -5.96354e-16 -5.59082e-16 -1.27471e-14 
2.30171 93.16 62.4558 2.48617 4.59902 3.99351 0 5.07867 -1.15138 -2.08841 2.20347 0.50839 0 5.61661 1.07143 -1.67514 2.38841 0.225765 -1.02604e-17 5.98978 0.11501 -1.2509 3.09078 0.309283 -1.10457e-17 6.50583 -0.443523 -0.847958 3.98498 0.334559 -1.97295e-17 7.60548 -1.50593 -0.3315 3.91657 0.452451 -2.53307e-17 9.49737 -0.914492 0.311871 4.05675 0.217906 -2.90401e-17 10.5513 1.57691 0.0784043 0.54658 0.0690389 -1.29193e-17 4.78644 0.715339 -0.1062 5.25211 -1.61964 -1.8116e-17 4.82109 0.421791 0.200113 -3.08878 -0.878907 -2.00958e-17 4.83041 0.765062 -3.19 -3.93949 1.4842 1.23299 -7.60731 7.53374 1.85009 1.21969 0.838948 12.9547 3.2495 -3.26872 -80.904 26.206 -8.40317 29.2081 0.0598081 0.137039 4.00919 -0.674343 -19.6799 24.234 0.0496219 0.113701 1.77968 -11.5779 -5.07339 -1.23299 -7.60729 7.53365 2.80585 2.33539 1.66886 -12.9547 3.2495 -3.26872 72.9836 8.717 9.57896 -29.2081 0.0598081 0.137039 -2.41533 -0.235106 11.7149 -24.234 0.0496218 0.113702 -1.02119 -9.24649 3.74888 9.23673 -4.20556 2.0327 -2.56947 -13.3658 -16.427 -0.852353 -38.7721 -0.655187 -2.35732 8.77194 0.027406 -2.32622 -40.4017 -6.04875 -1.51917 1.26362 15.3003 0.779096 -9.8844 12.4959 -2.77687e-17 -7.97605e-16 1.48905e-17 -9.23673 -4.20556 2.0327 -3.64382 -11.5459 18.3801 0.852353 -38.7721 -0.655187 1.39409 5.2037 0.0275347 2.32622 -40.4017 -6.04875 -1.1807 -1.25143 -14.9861 -0.779096 -9.8844 12.4959 -5.70046e-16 -5.60726e-16 -1.27479e-14 
